<?xml version="1.0" standalone="no"?>
<!DOCTYPE svg PUBLIC "-//W3C//DTD SVG 20010904//EN"
 "http://www.w3.org/TR/2001/REC-SVG-20010904/DTD/svg10.dtd">
<svg version="1.0" xmlns="http://www.w3.org/2000/svg"
 width="512.000000pt" height="512.000000pt" viewBox="0 0 512.000000 512.000000"
 preserveAspectRatio="xMidYMid meet">
<metadata>
Created by potrace 1.16, written by Peter Selinger 2001-2019
</metadata>
<g transform="translate(0.000000,512.000000) scale(0.100000,-0.100000)"
fill="#000000" stroke="none">
<path d="M1006 4258 c-14 -20 -16 -218 -16 -1908 0 -1690 2 -1888 16 -1908
l15 -22 1539 0 1539 0 15 22 c14 19 16 76 16 419 0 371 -1 397 -18 412 -24 22
-55 21 -75 -1 -15 -17 -17 -58 -17 -380 l0 -362 -1460 0 -1460 0 0 1820 0
1820 348 0 c325 0 350 1 365 18 21 23 21 41 1 70 l-15 22 -389 0 -389 0 -15
-22z"/>
<path d="M3306 4258 c-21 -29 -20 -51 2 -71 17 -15 57 -17 365 -17 l347 0 0
-861 c0 -574 3 -867 10 -880 13 -23 62 -26 84 -3 14 14 16 111 16 918 0 862
-1 904 -18 919 -17 15 -59 17 -405 17 l-386 0 -15 -22z"/>
<path d="M2690 4044 c-58 -48 -125 -103 -149 -122 l-43 -36 -73 77 c-40 42
-79 77 -86 77 -29 0 -59 -31 -59 -60 0 -22 21 -50 98 -129 53 -56 105 -101
114 -101 18 0 92 58 268 207 82 70 106 95 108 118 4 32 -18 55 -53 55 -11 0
-67 -39 -125 -86z"/>
<path d="M1557 2302 c-22 -24 -21 -55 1 -75 16 -15 51 -17 284 -17 244 0 266
1 281 18 20 22 22 63 5 80 -9 9 -86 12 -283 12 -251 0 -273 -1 -288 -18z"/>
<path d="M2245 2296 c-18 -27 -7 -69 20 -80 29 -11 1104 -7 1126 4 22 12 27
68 7 88 -9 9 -150 12 -575 12 l-563 0 -15 -24z"/>
<path d="M4071 2230 c-55 -26 -884 -856 -908 -910 -9 -19 -39 -107 -68 -196
-58 -180 -66 -255 -31 -293 37 -40 67 -36 301 39 l220 71 428 432 c278 280
435 446 448 472 28 60 25 148 -7 213 -29 59 -120 146 -179 173 -54 25 -147 24
-204 -1z m190 -123 c71 -54 109 -111 109 -164 0 -42 -4 -50 -64 -111 l-65 -67
-125 125 -126 124 42 44 c90 93 154 107 229 49z m-391 -712 l-295 -295 -125
125 -125 125 295 295 295 295 125 -125 125 -125 -295 -295z m-495 -255 c60
-60 107 -111 104 -114 -8 -7 -322 -106 -326 -102 -2 2 14 62 37 132 23 71 46
144 52 162 5 17 13 32 16 32 4 0 57 -49 117 -110z"/>
<path d="M1557 2042 c-22 -24 -21 -55 1 -75 17 -15 73 -17 604 -17 554 0 586
1 601 18 22 24 21 55 -1 75 -17 15 -73 17 -604 17 -554 0 -586 -1 -601 -18z"/>
<path d="M2886 2044 c-20 -20 -20 -58 0 -78 13 -14 58 -16 334 -16 l320 0 17
26 c15 24 15 29 2 53 l-15 26 -321 3 c-282 2 -323 0 -337 -14z"/>
<path d="M1562 1784 c-27 -18 -29 -55 -4 -77 16 -15 52 -17 305 -17 246 0 288
2 301 16 21 21 20 57 -2 77 -16 15 -52 17 -298 17 -237 0 -283 -2 -302 -16z"/>
<path d="M2287 1782 c-22 -24 -21 -55 1 -75 17 -15 65 -17 488 -17 352 0 473
3 482 12 17 17 15 64 -4 82 -14 14 -71 16 -483 16 -441 0 -469 -1 -484 -18z"/>
</g>
</svg>
