<svg width="34" height="34" viewBox="0 0 34 34" fill="none" xmlns="http://www.w3.org/2000/svg">
<g clip-path="url(#clip0_787_9937)">
<path d="M22.3125 18.0625C22.3125 19.4715 21.7528 20.8227 20.7565 21.819C19.7602 22.8153 18.409 23.375 17 23.375C15.591 23.375 14.2398 22.8153 13.2435 21.819C12.2472 20.8227 11.6875 19.4715 11.6875 18.0625C11.6875 16.6535 12.2472 15.3023 13.2435 14.306C14.2398 13.3097 15.591 12.75 17 12.75C18.409 12.75 19.7602 13.3097 20.7565 14.306C21.7528 15.3023 22.3125 16.6535 22.3125 18.0625Z" fill="#C4C4C4"/>
<path d="M4.25 8.5C3.12283 8.5 2.04183 8.94777 1.2448 9.7448C0.447767 10.5418 0 11.6228 0 12.75L0 25.5C0 26.6272 0.447767 27.7082 1.2448 28.5052C2.04183 29.3022 3.12283 29.75 4.25 29.75H29.75C30.8772 29.75 31.9582 29.3022 32.7552 28.5052C33.5522 27.7082 34 26.6272 34 25.5V12.75C34 11.6228 33.5522 10.5418 32.7552 9.7448C31.9582 8.94777 30.8772 8.5 29.75 8.5H27.2595C26.1324 8.49976 25.0516 8.05183 24.2547 7.25475L22.4953 5.49525C21.6984 4.69817 20.6176 4.25024 19.4905 4.25H14.5095C13.3824 4.25024 12.3016 4.69817 11.5048 5.49525L9.74525 7.25475C8.94841 8.05183 7.86758 8.49976 6.7405 8.5H4.25ZM5.3125 12.75C5.03071 12.75 4.76046 12.6381 4.5612 12.4388C4.36194 12.2395 4.25 11.9693 4.25 11.6875C4.25 11.4057 4.36194 11.1355 4.5612 10.9362C4.76046 10.7369 5.03071 10.625 5.3125 10.625C5.59429 10.625 5.86454 10.7369 6.0638 10.9362C6.26306 11.1355 6.375 11.4057 6.375 11.6875C6.375 11.9693 6.26306 12.2395 6.0638 12.4388C5.86454 12.6381 5.59429 12.75 5.3125 12.75ZM24.4375 18.0625C24.4375 20.035 23.6539 21.9268 22.2591 23.3216C20.8643 24.7164 18.9725 25.5 17 25.5C15.0275 25.5 13.1357 24.7164 11.7409 23.3216C10.3461 21.9268 9.5625 20.035 9.5625 18.0625C9.5625 16.09 10.3461 14.1982 11.7409 12.8034C13.1357 11.4086 15.0275 10.625 17 10.625C18.9725 10.625 20.8643 11.4086 22.2591 12.8034C23.6539 14.1982 24.4375 16.09 24.4375 18.0625Z" fill="#C4C4C4"/>
</g>
<defs>
<clipPath id="clip0_787_9937">
<rect width="34" height="34" fill="white"/>
</clipPath>
</defs>
</svg>
