<?xml version="1.0" standalone="no"?>
<!DOCTYPE svg PUBLIC "-//W3C//DTD SVG 20010904//EN"
 "http://www.w3.org/TR/2001/REC-SVG-20010904/DTD/svg10.dtd">
<svg version="1.0" xmlns="http://www.w3.org/2000/svg"
 width="512.000000pt" height="512.000000pt" viewBox="0 0 512.000000 512.000000"
 preserveAspectRatio="xMidYMid meet">
<metadata>
Created by potrace 1.16, written by Peter Selinger 2001-2019
</metadata>
<g transform="translate(0.000000,512.000000) scale(0.100000,-0.100000)"
fill="#000000" stroke="none">
<path d="M1792 4739 c-71 -28 -144 -101 -171 -174 -20 -54 -21 -71 -21 -689
l0 -634 -97 -4 c-82 -3 -108 -9 -158 -33 -76 -37 -153 -113 -191 -190 l-29
-60 0 -1155 0 -1155 29 -60 c38 -77 114 -153 191 -191 l60 -29 1155 0 1155 0
60 29 c77 38 153 114 191 191 l29 60 0 1155 0 1155 -29 60 c-38 77 -114 153
-191 190 -50 25 -74 30 -157 33 l-98 4 0 634 c0 618 -1 635 -21 689 -28 74
-100 146 -174 174 -50 19 -77 21 -255 21 l-199 0 -20 -26 c-12 -15 -21 -40
-21 -56 0 -106 -126 -198 -270 -198 -144 0 -270 92 -270 198 0 16 -9 41 -21
56 l-20 26 -202 -1 c-178 0 -208 -2 -255 -20z m366 -203 c42 -81 113 -148 200
-189 65 -31 71 -32 202 -32 131 0 137 1 202 32 88 41 158 108 200 190 l33 65
120 -4 c97 -3 127 -8 154 -23 44 -26 70 -62 81 -111 5 -21 10 -306 10 -631 l0
-593 -800 0 -801 0 3 618 c3 596 4 618 23 651 42 72 87 88 240 90 l100 1 33
-64z m1532 -1482 c54 -25 113 -87 131 -140 12 -32 14 -229 14 -1114 0 -1191 4
-1119 -67 -1196 -78 -84 6 -79 -1208 -79 -1214 0 -1130 -5 -1208 79 -71 77
-67 5 -67 1196 0 1183 -3 1118 63 1192 41 45 77 66 135 78 23 4 519 7 1102 7
1053 -2 1060 -2 1105 -23z"/>
<path d="M1862 4460 c-19 -18 -22 -31 -22 -105 0 -74 3 -87 22 -105 31 -28 88
-27 116 3 19 20 22 35 22 105 0 71 -3 84 -22 102 -14 12 -35 20 -58 20 -23 0
-44 -8 -58 -20z"/>
<path d="M2500 4180 c-19 -19 -20 -33 -20 -307 l0 -286 -65 63 c-62 59 -68 62
-103 57 -46 -8 -72 -38 -72 -86 0 -34 10 -47 133 -169 l134 -132 53 0 53 0
134 132 c123 122 133 135 133 169 0 48 -26 78 -72 86 -35 5 -41 2 -103 -57
l-65 -63 0 286 c0 274 -1 288 -20 307 -13 13 -33 20 -60 20 -27 0 -47 -7 -60
-20z"/>
<path d="M1862 4140 c-21 -20 -22 -27 -22 -260 0 -233 1 -240 22 -260 31 -28
88 -27 116 3 21 23 22 31 22 260 0 230 -1 237 -22 257 -14 12 -35 20 -58 20
-23 0 -44 -8 -58 -20z"/>
<path d="M2330 2900 c-445 -95 -777 -429 -871 -875 -26 -123 -26 -327 0 -450
94 -448 428 -782 876 -876 123 -26 327 -26 450 0 448 94 782 428 876 876 40
192 21 431 -51 628 -128 351 -444 618 -825 698 -121 25 -336 25 -455 -1z m440
-169 c336 -78 604 -332 707 -668 24 -80 27 -103 27 -258 1 -149 -2 -180 -22
-249 -95 -328 -336 -574 -657 -672 -83 -26 -104 -28 -260 -28 -149 -1 -180 2
-250 22 -330 95 -580 344 -675 673 -31 106 -39 316 -15 430 71 350 330 634
670 734 140 41 340 48 475 16z"/>
<path d="M2500 2660 c-13 -13 -20 -33 -20 -60 0 -27 7 -47 20 -60 13 -13 33
-20 60 -20 53 0 80 27 80 80 0 27 -7 47 -20 60 -13 13 -33 20 -60 20 -27 0
-47 -7 -60 -20z"/>
<path d="M2507 2419 l-27 -20 -2 -277 -3 -276 -155 -113 c-85 -62 -161 -121
-167 -130 -7 -9 -13 -34 -13 -54 0 -62 66 -98 123 -68 36 20 351 250 365 267
9 12 12 94 12 333 l0 318 -26 20 c-34 27 -74 27 -107 0z"/>
<path d="M1700 1860 c-13 -13 -20 -33 -20 -60 0 -27 7 -47 20 -60 13 -13 33
-20 60 -20 27 0 47 7 60 20 13 13 20 33 20 60 0 27 -7 47 -20 60 -13 13 -33
20 -60 20 -27 0 -47 -7 -60 -20z"/>
<path d="M3300 1860 c-13 -13 -20 -33 -20 -60 0 -53 27 -80 80 -80 53 0 80 27
80 80 0 27 -7 47 -20 60 -13 13 -33 20 -60 20 -27 0 -47 -7 -60 -20z"/>
<path d="M2500 1060 c-13 -13 -20 -33 -20 -60 0 -53 27 -80 80 -80 53 0 80 27
80 80 0 53 -27 80 -80 80 -27 0 -47 -7 -60 -20z"/>
</g>
</svg>
